<svg width="10" height="10" viewBox="0 0 10 10" fill="none" xmlns="http://www.w3.org/2000/svg">
<path d="M9.32825 4.4375H5.57825V0.6875C5.57825 0.59375 5.4845 0.5 5.39075 0.5H4.64075C4.52356 0.5 4.45325 0.59375 4.45325 0.6875V4.4375H0.703247C0.58606 4.4375 0.515747 4.53125 0.515747 4.625V5.375C0.515747 5.49219 0.58606 5.5625 0.703247 5.5625H4.45325V9.3125C4.45325 9.42969 4.52356 9.5 4.64075 9.5H5.39075C5.4845 9.5 5.57825 9.42969 5.57825 9.3125V5.5625H9.32825C9.422 5.5625 9.51575 5.49219 9.51575 5.375V4.625C9.51575 4.53125 9.422 4.4375 9.32825 4.4375Z" />
</svg>
