<svg width="15" height="12" viewBox="0 0 15 12" fill="none" xmlns="http://www.w3.org/2000/svg">
<path d="M14.7314 3.125L13.5829 0.710938C13.5126 0.59375 13.3954 0.5 13.2548 0.5L7.65323 1.25C7.65323 1.25 2.05167 0.5 2.02823 0.5C1.88761 0.5 1.77042 0.59375 1.70011 0.710938L0.551672 3.125C0.457922 3.33594 0.551672 3.59375 0.786047 3.66406L1.93448 4.01562V8.96094C1.93448 9.3125 2.16886 9.61719 2.47355 9.6875L7.30167 10.9766C7.60636 11.0469 7.84073 11 7.98136 10.9766L12.8095 9.6875C13.1142 9.61719 13.3485 9.3125 13.3485 8.96094V4.01562L14.497 3.66406C14.7314 3.59375 14.8251 3.33594 14.7314 3.125ZM2.23917 1.29688L6.45792 1.85938L5.12198 4.20312L1.37198 3.07812L2.23917 1.29688ZM2.66105 4.22656C5.40323 5.07031 5.21573 5 5.28605 5C5.42667 5 5.54386 4.95312 5.59073 4.83594L7.27823 1.88281V10.1797L2.66105 8.96094V4.22656ZM12.622 8.96094L8.0048 10.1797V1.88281L9.6923 4.8125C9.76261 4.92969 9.8798 5 9.99698 5C10.0673 5 9.8798 5.04688 12.622 4.22656V8.96094ZM10.161 4.20312L8.82511 1.85938L13.0673 1.29688L13.911 3.07812L10.161 4.20312Z" fill="#1A1B1C"/>
</svg>
