<svg width="12" height="13" viewBox="0 0 12 13" fill="none" xmlns="http://www.w3.org/2000/svg">
<path d="M6.07977 0.5C2.86884 0.5 0.267273 3.10156 0.267273 6.3125C0.267273 9.52344 2.86884 12.125 6.07977 12.125C9.29071 12.125 11.8923 9.52344 11.8923 6.3125C11.8923 3.10156 9.29071 0.5 6.07977 0.5ZM6.07977 11.375C3.29071 11.375 1.01727 9.125 1.01727 6.3125C1.01727 3.54688 3.26727 1.25 6.07977 1.25C8.8454 1.25 11.1423 3.52344 11.1423 6.3125C11.1423 9.10156 8.86884 11.375 6.07977 11.375ZM8.2829 4.69531C8.40009 4.57812 8.40009 4.41406 8.2829 4.29688L8.0954 4.10938C7.97821 3.99219 7.81415 3.99219 7.69696 4.10938L6.07977 5.72656L4.43915 4.10938C4.3454 3.99219 4.1579 3.99219 4.04071 4.10938L3.85321 4.29688C3.73602 4.41406 3.73602 4.57812 3.85321 4.69531L5.4704 6.3125L3.85321 7.95312C3.73602 8.04688 3.73602 8.23438 3.85321 8.35156L4.04071 8.53906C4.1579 8.65625 4.3454 8.65625 4.43915 8.53906L6.07977 6.92188L7.69696 8.53906C7.81415 8.65625 7.97821 8.65625 8.0954 8.53906L8.2829 8.35156C8.40009 8.23438 8.40009 8.04688 8.2829 7.95312L6.66571 6.3125L8.2829 4.69531Z" fill="#1A1B1C"/>
</svg>
