<svg width="15" height="13" viewBox="0 0 15 13" fill="none" xmlns="http://www.w3.org/2000/svg">
<path d="M6.12274 12.4827C6.19305 12.5061 6.2868 12.4592 6.2868 12.3889L9.59149 0.834222C9.61493 0.763909 9.56805 0.693597 9.49774 0.670159L8.9118 0.506097C8.84149 0.482659 8.77118 0.529534 8.74774 0.599847L5.44305 12.1545C5.41962 12.2248 5.46649 12.2952 5.5368 12.3186L6.12274 12.4827ZM4.34149 9.55297L4.7868 9.06078C4.83368 9.01391 4.83368 8.9436 4.76337 8.89672L1.92743 6.48266L4.76337 4.09203C4.83368 4.04516 4.83368 3.97485 4.7868 3.92797L4.34149 3.43578C4.31805 3.38891 4.2243 3.38891 4.17743 3.43578L0.802429 6.41235C0.755554 6.45922 0.755554 6.52953 0.802429 6.57641L4.17743 9.55297C4.2243 9.59985 4.31805 9.59985 4.34149 9.55297ZM10.8571 9.55297L14.2321 6.57641C14.279 6.52953 14.279 6.45922 14.2321 6.41235L10.8571 3.43578C10.8102 3.38891 10.7399 3.38891 10.6931 3.43578L10.2477 3.92797C10.2009 3.97485 10.2243 4.04516 10.2712 4.09203L13.1071 6.48266L10.2712 8.89672C10.2243 8.9436 10.2009 9.01391 10.2477 9.06078L10.6931 9.55297C10.7165 9.59985 10.8102 9.59985 10.8571 9.55297Z" fill="#1A1B1C"/>
</svg>
