<svg width="16" height="11" viewBox="0 0 16 11" fill="none" xmlns="http://www.w3.org/2000/svg">
<path d="M4.64076 3.10156C4.96889 3.10156 5.13295 2.70312 4.89858 2.46875L3.02358 0.59375C2.95326 0.546875 2.83608 0.5 2.74233 0.5C2.67201 0.5 2.55483 0.546875 2.48451 0.59375L0.609514 2.46875C0.398577 2.67969 0.515764 3.10156 0.890764 3.10156H2.39076V8.35156H0.890764C0.539202 8.35156 0.375139 8.77344 0.609514 9.00781L2.48451 10.8828C2.55483 10.9297 2.67201 10.9766 2.76576 10.9766C2.83608 10.9766 2.95326 10.9297 3.02358 10.8828L4.89858 9.00781C5.10951 8.77344 4.99233 8.35156 4.64076 8.35156H3.14076V3.10156H4.64076ZM3.7267 9.10156L2.76576 10.0859L1.78139 9.10156H3.7267ZM2.39076 2.35156H1.78139L2.76576 1.39062L3.7267 2.35156H2.39076ZM15.3283 5.35156H6.70326C6.58608 5.35156 6.51576 5.44531 6.51576 5.53906V5.91406C6.51576 6.03125 6.58608 6.10156 6.70326 6.10156H15.3283C15.422 6.10156 15.5158 6.03125 15.5158 5.91406V5.53906C15.5158 5.44531 15.422 5.35156 15.3283 5.35156ZM15.3283 8.35156H6.70326C6.58608 8.35156 6.51576 8.44531 6.51576 8.53906V8.91406C6.51576 9.03125 6.58608 9.10156 6.70326 9.10156H15.3283C15.422 9.10156 15.5158 9.03125 15.5158 8.91406V8.53906C15.5158 8.44531 15.422 8.35156 15.3283 8.35156ZM15.3283 2.35156H6.70326C6.58608 2.35156 6.51576 2.44531 6.51576 2.53906V2.91406C6.51576 3.03125 6.58608 3.10156 6.70326 3.10156H15.3283C15.422 3.10156 15.5158 3.03125 15.5158 2.91406V2.53906C15.5158 2.44531 15.422 2.35156 15.3283 2.35156Z" fill="#1A1B1C"/>
</svg>
