<svg width="16" height="16" viewBox="0 0 16 16" fill="none" xmlns="http://www.w3.org/2000/svg">
<path d="M8.01575 0.5C3.8595 0.5 0.515747 3.875 0.515747 8C0.515747 12.1562 3.8595 15.5 8.01575 15.5C12.1407 15.5 15.5157 12.1562 15.5157 8C15.5157 3.875 12.1407 0.5 8.01575 0.5ZM8.01575 14.5C4.422 14.5 1.51575 11.5938 1.51575 8C1.51575 4.4375 4.422 1.5 8.01575 1.5C11.5782 1.5 14.5157 4.4375 14.5157 8C14.5157 11.5938 11.5782 14.5 8.01575 14.5ZM8.01575 5.75C8.422 5.75 8.76575 5.4375 8.76575 5C8.76575 4.59375 8.422 4.25 8.01575 4.25C7.57825 4.25 7.26575 4.59375 7.26575 5C7.26575 5.4375 7.57825 5.75 8.01575 5.75ZM9.51575 11H8.51575V7.5C8.51575 7.25 8.26575 7 8.01575 7H7.01575C6.7345 7 6.51575 7.25 6.51575 7.5C6.51575 7.78125 6.7345 8 7.01575 8H7.51575V11H6.51575C6.2345 11 6.01575 11.25 6.01575 11.5C6.01575 11.7812 6.2345 12 6.51575 12H9.51575C9.76575 12 10.0157 11.7812 10.0157 11.5C10.0157 11.25 9.76575 11 9.51575 11Z" fill="#1A1B1C"/>
</svg>
