<svg width="15" height="17" viewBox="0 0 15 17" fill="none" xmlns="http://www.w3.org/2000/svg">
<path d="M12.5 7.5H11.5V4.5C11.5 2.3125 9.6875 0.5 7.5 0.5C5.28125 0.5 3.5 2.3125 3.5 4.5V7.5H2.5C1.375 7.5 0.5 8.40625 0.5 9.5V14.5C0.5 15.625 1.375 16.5 2.5 16.5H12.5C13.5938 16.5 14.5 15.625 14.5 14.5V9.5C14.5 8.40625 13.5938 7.5 12.5 7.5ZM4.5 4.5C4.5 2.875 5.84375 1.5 7.5 1.5C9.125 1.5 10.5 2.875 10.5 4.5V7.5H4.5V4.5ZM13.5 14.5C13.5 15.0625 13.0312 15.5 12.5 15.5H2.5C1.9375 15.5 1.5 15.0625 1.5 14.5V9.5C1.5 8.96875 1.9375 8.5 2.5 8.5H12.5C13.0312 8.5 13.5 8.96875 13.5 9.5V14.5Z" fill="#1A1B1C"/>
</svg>
