<svg width="13" height="12" viewBox="0 0 13 12" fill="none" xmlns="http://www.w3.org/2000/svg">
<path d="M5.14062 8.46875C5.09375 8.42188 5.02344 8.39844 4.95312 8.39844C4.88281 8.39844 4.78906 8.42188 4.76562 8.46875L3.5 9.71094V0.6875C3.5 0.59375 3.40625 0.5 3.3125 0.5H2.9375C2.82031 0.5 2.75 0.59375 2.75 0.6875V9.6875L1.48438 8.46875C1.4375 8.42188 1.34375 8.39844 1.27344 8.39844C1.20312 8.39844 1.13281 8.42188 1.08594 8.46875L0.945312 8.60938C0.898438 8.65625 0.851562 8.72656 0.851562 8.79688C0.851562 8.86719 0.898438 8.96094 0.945312 9.00781L2.91406 10.9297C2.96094 10.9766 3.05469 11.0234 3.10156 11.0234C3.17188 11.0234 3.26562 10.9766 3.3125 10.9297L5.28125 9.00781C5.32812 8.96094 5.375 8.86719 5.375 8.79688C5.375 8.72656 5.32812 8.65625 5.28125 8.60938L5.14062 8.46875ZM6.96875 4.25H10.5312C10.7891 4.25 11 4.0625 11 3.78125V0.96875C11 0.710938 10.7891 0.5 10.5312 0.5H6.96875C6.6875 0.5 6.5 0.710938 6.5 0.96875V3.78125C6.5 4.0625 6.6875 4.25 6.96875 4.25ZM7.25 1.25H10.25V3.5H7.25V1.25ZM11.8438 5.75H7.15625C6.78125 5.75 6.5 6.05469 6.5 6.40625V10.3438C6.5 10.7188 6.78125 11 7.15625 11H11.8438C12.1953 11 12.5 10.7188 12.5 10.3438V6.40625C12.5 6.05469 12.1953 5.75 11.8438 5.75ZM11.75 10.25H7.25V6.5H11.75V10.25Z" fill="#1A1B1C"/>
</svg>
