<svg width="11" height="11" viewBox="0 0 11 11" fill="none" xmlns="http://www.w3.org/2000/svg">
<path d="M10.75 8.75L7.03125 5L10.75 1.28125C11.0625 1 11.0625 0.53125 10.75 0.25C10.4688 -0.0625 10 -0.0625 9.71875 0.25L6 3.96875L2.25 0.25C1.96875 -0.0625 1.5 -0.0625 1.21875 0.25C0.90625 0.53125 0.90625 1 1.21875 1.28125L4.9375 5L1.21875 8.75C0.90625 9.03125 0.90625 9.5 1.21875 9.78125C1.5 10.0938 1.96875 10.0938 2.25 9.78125L6 6.0625L9.71875 9.78125C10 10.0938 10.4688 10.0938 10.75 9.78125C11.0625 9.5 11.0625 9.03125 10.75 8.75Z" fill="black"/>
</svg>
